HIERARCHY
ROOT Hips
{
	OFFSET 0.00000 0.00000 0.00000
	CHANNELS 6 Xposition Yposition Zposition Yrotation Zrotation Xrotation 
	JOINT Lumbar
	{
		OFFSET 0 0 0
		CHANNELS 3 Zrotation Xrotation Yrotation
		JOINT Neck
		{
			OFFSET 0.00 0.2701 0.00
			CHANNELS 3 Zrotation Xrotation Yrotation
			End Site
			{
				OFFSET 0.00 0.1379 0.00
			}
		}
		JOINT RightShoulder
		{
			OFFSET 0.0119 0.2289 0.1181
			CHANNELS 3 Zrotation Xrotation Yrotation
			JOINT RightElbow
			{
				OFFSET 0.00 -0.1475 0.00
				CHANNELS 2 Zrotation Yrotation
				JOINT RightWrist
				{
					OFFSET 0.00 -0.1605 0.00
					CHANNELS 2 Zrotation Xrotation
					End Site
					{
						OFFSET 0.0040 -0.1068 0.0006
					}
				}
			}
		}
		JOINT LeftShoulder
		{
			OFFSET 0.0119 0.2289 -0.1181
			CHANNELS 3 Zrotation Xrotation Yrotation
			JOINT LeftElbow
			{
				OFFSET 0.00 -0.1475 0.00
				CHANNELS 2 Zrotation Yrotation
				JOINT LeftWrist
				{
					OFFSET 0.00 -0.1605 0.00
					CHANNELS 2 Zrotation Xrotation
					End Site
					{
						OFFSET 0.0040 -0.1068 -0.0006
					}
				}
			}
		}
	}
	JOINT RightHip
	{
		OFFSET 0.0316 -0.0424 0.0458
		CHANNELS 3 Zrotation Xrotation Yrotation
		JOINT RightKnee
		{
			OFFSET 0.00 -0.2438 0.00
			CHANNELS 1 Zrotation
			JOINT RightAnkle
			{
				OFFSET 0.00 -0.2449 0.00
				CHANNELS 3 Zrotation Xrotation Yrotation
				End Site
				{
					OFFSET 0.1237 -0.0542 0.0051
				}
			}
		}
	}
	JOINT LeftHip
	{
		OFFSET 0.0316 -0.0424 -0.0458
		CHANNELS 3 Zrotation Xrotation Yrotation
		JOINT LeftKnee
		{
			OFFSET 0.00 -0.2438 0.00
			CHANNELS 1 Zrotation
			JOINT LeftAnkle
			{
				OFFSET 0.00 -0.2449 0.00
				CHANNELS 3 Zrotation Xrotation Yrotation
				End Site
				{
					OFFSET 0.1237 -0.0542 -0.0051
				}
			}
		}
	}
}
MOTION
Frames: 33
Frame Time: 0.02
0.85958 0.16304 -0.11847 -0.8286 -21.84633 -2.06691 37.2361 2.77654 -12.0002 -22.93245 6.59347 -0.83071 -2.76563 -19.38326 6.63099 101.9619 80.52579 10.19454 -3.86367 -12.85157 21.5477 -16.77511 50.78326 -91.39864 8.49358 0.4687 29.62776 -8.93883 1.25196 -10.59724 -8.44824 -3.1069 -2.34457 11.5716 5.25389 -2.21884 0.54013 -17.49449 39.45621 21.3385
0.8599 0.16279 -0.11702 -0.95241 -22.14748 -1.92325 37.32557 2.77666 -11.59335 -22.93362 7.21901 -0.83071 -2.34382 -19.40158 7.08996 100.66248 80.3173 10.43744 -3.9378 -13.4547 21.82172 -16.52023 50.94922 -91.80649 8.59505 0.38757 30.91616 -8.85455 0.94402 -12.4123 -8.34519 -3.14827 -2.36212 11.83673 5.22773 -2.11358 0.54119 -17.4332 39.42612 21.33478
0.86029 0.16247 -0.11527 -1.11328 -22.52136 -1.75062 37.43204 2.76016 -11.08834 -22.90126 8.03171 -0.83071 -1.65109 -19.40895 7.65163 98.88584 80.05853 10.8121 -3.98523 -14.17703 22.19083 -16.31781 51.19435 -92.34301 8.73889 0.28239 32.50438 -8.73989 0.6192 -14.63857 -8.22917 -3.21371 -2.39122 12.16718 5.19171 -1.95264 0.5422 -17.34695 39.38584 21.32931
0.86067 0.16219 -0.11363 -1.25317 -22.8532 -1.59435 37.52102 2.75128 -10.63154 -22.88079 8.78712 -0.83071 -1.02429 -19.42848 8.22652 97.19732 79.86645 11.09903 -3.99791 -14.85863 22.51054 -16.07407 51.39811 -92.82021 8.85173 0.18341 33.92636 -8.62273 0.30674 -16.64277 -8.12536 -3.27471 -2.41901 12.45588 5.16627 -1.81484 0.5432 -17.27197 39.33576 21.32202
0.86093 0.16187 -0.1121 -1.41275 -23.22225 -1.42333 37.64937 2.7402 -10.1577 -22.87246 9.42906 -0.83071 -0.62257 -19.41732 8.55998 96.03312 79.47441 11.49449 -4.20349 -15.48881 22.85771 -15.90152 51.62347 -93.29924 9.01188 0.10365 35.48227 -8.57276 -0.02514 -18.80896 -7.9958 -3.30856 -2.43035 12.79414 5.11366 -1.68325 0.54437 -17.19303 39.34317 21.32517
0.86147 0.16163 -0.11027 -1.53675 -23.53212 -1.27757 37.70087 2.73241 -9.69716 -22.83245 10.3499 -0.83071 0.2902 -19.46995 9.40716 93.68368 79.50509 11.70141 -4.00865 -16.25158 23.16972 -15.59568 51.82393 -93.80834 9.08745 -0.02099 36.82221 -8.37739 -0.32142 -20.7206 -7.91556 -3.40439 -2.47854 13.04659 5.11735 -1.52976 0.54514 -17.12236 39.23266 21.30692
0.86271 0.16158 -0.10768 -1.58412 -23.65039 -1.1967 37.5302 2.71405 -9.29351 -22.70484 11.99909 -0.83071 2.74011 -19.67228 11.76034 88.02282 80.5513 11.32171 -2.64389 -17.36242 23.36184 -14.89008 51.92709 -94.33268 8.88021 -0.27057 37.55773 -7.77384 -0.50575 -21.94641 -7.98378 -3.67444 -2.63069 13.02854 5.26008 -1.29015 0.54498 -17.02727 38.76208 21.22315
0.86423 0.16161 -0.10479 -1.58856 -23.70796 -1.14419 37.28241 2.70383 -8.90841 -22.54924 13.92006 -0.83071 5.65697 -19.94388 14.60533 81.21785 82.04777 10.75494 -0.89067 -18.60074 23.51505 -14.05227 52.00494 -94.88693 8.59237 -0.56295 38.0524 -7.02766 -0.65468 -22.87879 -8.09909 -4.00904 -2.82133 12.92473 5.46298 -1.03734 0.54437 -16.95121 38.17952 21.11887
0.86563 0.16161 -0.10203 -1.59295 -23.80076 -1.08694 37.07449 2.70556 -8.51645 -22.4108 15.71506 -0.83071 8.2372 -20.20309 17.15178 75.03592 83.45542 10.29673 0.63934 -19.77173 23.68553 -13.28736 52.09949 -95.45425 8.36818 -0.83149 38.61534 -6.35615 -0.8269 -23.86896 -8.18858 -4.30222 -2.98752 12.87218 5.65105 -0.81663 0.5439 -16.90134 37.67318 21.02889
0.86699 0.16156 -0.09927 -1.68214 -23.86601 -0.99554 36.84866 2.64119 -8.1109 -22.24826 17.53207 -0.83071 11.36182 -20.38312 20.02057 68.39145 84.40366 9.74333 2.36983 -20.98316 23.86098 -12.46978 52.17187 -95.92376 8.03599 -1.12037 39.3659 -5.64216 -0.97222 -25.19565 -8.3017 -4.628 -3.17212 12.77168 5.7872 -0.48509 0.5438 -16.70356 37.06185 20.91916
0.86849 0.16166 -0.09646 -1.58283 -23.97054 -0.98081 36.63927 2.71594 -7.74377 -22.13495 19.35902 -0.83071 13.4478 -20.74247 22.33096 62.45819 86.37718 9.34242 3.77145 -22.14344 24.01575 -11.73032 52.28714 -96.58956 7.90328 -1.37556 39.66048 -4.98296 -1.16131 -25.74248 -8.37016 -4.92505 -3.34162 12.74778 6.04433 -0.38034 0.54267 -16.81865 36.63983 20.84408
0.87034 0.16217 -0.09355 -0.98479 -24.22137 -1.18398 36.51429 3.17869 -7.44057 -22.11988 21.19769 -0.83071 12.65224 -21.59742 22.9985 58.66033 91.40697 9.40625 4.19693 -23.09196 24.12004 -11.23459 52.4923 -97.90033 8.3912 -1.53687 38.79017 -4.51303 -1.51008 -24.24222 -8.36705 -4.91499 -3.33429 12.97335 6.63367 -0.90566 0.53997 -17.78653 36.77924 20.87652
0.87231 0.16284 -0.0906 -0.19716 -24.50916 -1.46066 36.40478 3.77991 -7.18268 -22.16372 23.02508 -0.83071 10.77469 -22.62619 23.08252 55.64207 97.38971 9.63056 4.27283 -23.99068 24.20426 -10.82277 52.74599 -99.38684 9.07358 -1.66078 37.46282 -4.10336 -1.89783 -21.96175 -8.30915 -4.90963 -3.33119 13.27532 7.33975 -1.65024 0.53589 -19.06493 37.10137 20.93838
0.8742 0.16345 -0.08767 0.51247 -24.76462 -1.69567 36.27477 4.3143 -6.92956 -22.21012 24.82528 -0.83071 9.32565 -23.5654 23.42101 52.33823 102.71778 9.78104 4.49093 -24.93822 24.29988 -10.37486 53.00192 -100.71931 9.63324 -1.7955 36.31797 -3.6635 -2.24861 -20.00989 -8.23041 -5.04565 -3.41193 13.53102 7.98469 -2.30649 0.53189 -20.21193 37.34469 20.98851
0.8762 0.16404 -0.0847 1.19299 -25.08368 -1.96801 36.19854 4.86645 -6.57099 -22.13211 26.77759 -0.83071 8.16177 -24.55604 23.82378 48.69705 109.00107 9.92545 4.79302 -25.78244 24.38724 -9.91296 53.16108 -102.36409 10.33307 -1.95826 35.26459 -3.22801 -2.68185 -18.14524 -8.3319 -4.59295 -3.1429 13.83309 8.66817 -2.95381 0.53081 -21.33918 37.60566 21.0511
0.878 0.1647 -0.08183 1.97376 -25.27972 -2.17785 36.0155 5.41309 -6.44129 -22.32705 28.39924 -0.83071 6.1386 -25.47441 23.9454 45.96739 113.5102 10.12732 4.83203 -26.82497 24.48421 -9.50283 53.52533 -103.40218 10.79074 -2.05268 33.9237 -2.80272 -2.95007 -15.93303 -8.06257 -5.34802 -3.58916 14.0571 9.29542 -3.62264 0.52251 -22.55518 37.8253 21.06976
0.87922 0.16547 -0.0792 3.02506 -25.12893 -2.21267 35.52991 5.92175 -6.9439 -23.2657 29.17163 -0.83071 2.02502 -26.19708 23.4497 45.49722 112.92932 10.41139 4.22882 -28.45456 24.64017 -9.20739 54.51407 -102.70003 10.51017 -1.97167 31.8296 -2.365 -2.77821 -12.81766 -6.62322 -9.59651 -6.12747 14.05489 9.76296 -4.74463 0.50036 -24.16876 38.32994 21.18698
0.88025 0.1663 -0.07668 4.16211 -24.85367 -2.17896 34.93782 6.4179 -7.67307 -24.47573 29.5975 -0.83072 -2.92016 -26.83167 22.68567 45.93634 110.52195 10.75463 3.37159 -30.27893 24.80098 -8.96333 55.69373 -101.38536 9.9836 -1.82227 29.47702 -1.94118 -2.43418 -9.4054 -4.83987 -15.02908 -9.36321 13.97143 10.1648 -5.81464 0.46898 -25.82291 38.71873 21.22433
0.88137 0.16711 -0.07413 5.23456 -24.6336 -2.16639 34.39681 6.91251 -8.29095 -25.55956 30.14236 -0.83072 -7.5005 -27.47624 22.03132 46.00813 108.91833 11.09739 2.62907 -31.99657 24.9424 -8.70141 56.74127 -100.36509 9.58456 -1.7012 27.28981 -1.52847 -2.15299 -6.21931 -3.32119 -19.81606 -12.20222 13.91903 10.5809 -6.59297 0.43927 -27.30258 38.8518 21.13973
0.88247 0.16792 -0.07149 6.42556 -24.41788 -2.19891 33.84315 7.44273 -8.94554 -26.66002 30.85512 -0.83073 -12.06926 -28.25515 21.40869 45.91034 107.45109 11.33825 1.8761 -33.79262 25.15791 -8.4189 57.98548 -99.28248 9.12618 -1.59023 24.88168 -1.04355 -1.93915 -2.62288 -1.35245 -25.06164 -15.37853 13.88981 11.06803 -8.63855 0.42407 -29.43251 40.23408 21.6928
0.88357 0.16873 -0.06907 7.3829 -24.16646 -2.11994 33.29264 7.89368 -9.57691 -27.7864 31.12894 -0.83073 -16.83777 -28.72932 20.66384 46.37448 105.26387 11.79816 1.09105 -35.46825 25.2177 -8.19071 58.86038 -98.18295 8.73004 -1.44279 22.88155 -0.7124 -1.54241 0.18208 -0.22859 -29.62732 -18.01747 13.79728 11.38874 -8.11917 0.37158 -30.23794 39.05853 20.93776
0.88477 0.16954 -0.06721 7.71095 -23.81767 -1.75238 32.75675 8.1306 -10.0876 -28.94442 30.33442 -0.83074 -22.01367 -28.39817 19.65201 48.14111 101.43993 12.89172 0.26361 -36.79677 24.87151 -8.09819 58.70659 -97.18143 8.56962 -1.20937 22.0466 -0.79498 -0.69152 0.6987 -1.62196 -32.07531 -19.0045 13.50374 11.27706 0.25517 0.2617 -27.16284 30.2038 16.2471
0.88599 0.17034 -0.06557 7.79212 -23.44244 -1.2744 32.23092 8.287 -10.56655 -30.1137 29.09891 -0.83074 -27.34289 -27.76059 18.53075 50.4418 96.96689 14.19429 -0.58274 -37.99078 24.3646 -8.05911 58.1679 -96.18709 8.47944 -0.94282 21.63829 -1.03274 0.34027 0.40996 -3.85928 -33.78894 -19.42604 13.15699 10.9978 11.07287 0.10756 -22.79011 18.89279 10.3036
0.88718 0.17115 -0.06386 7.96229 -23.0984 -0.84461 31.71421 8.47853 -11.06122 -31.26047 28.02694 -0.83074 -32.56085 -27.25172 17.45638 52.51332 92.8495 15.37271 -1.40809 -39.22575 23.91386 -7.99546 57.77955 -95.18814 8.35276 -0.6921 21.05298 -1.20436 1.29397 0.50611 -5.64456 -35.80633 -20.10484 12.86507 10.78705 20.24653 -0.05599 -19.15164 9.13513 5.16239
0.88844 0.17198 -0.06205 8.23725 -22.66945 -0.41979 31.1379 8.67641 -11.56053 -32.49114 27.09946 -0.83074 -37.99449 -26.78092 16.37476 54.56514 88.41516 16.67864 -2.29447 -40.55532 23.53135 -7.93221 57.49897 -94.16132 8.23381 -0.433 20.38636 -1.3589 2.23238 0.5345 -7.70605 -37.9916 -20.8072 12.44306 10.60519 31.63673 -0.09942 -14.91078 -2.4489 -0.95243
0.88955 0.17274 -0.06049 8.22951 -22.41227 0.03937 30.68712 8.84145 -12.03696 -33.545 25.76969 -0.83075 -42.99129 -26.16358 15.29776 56.76632 84.50766 17.76506 -3.05542 -41.65003 22.97247 -7.88348 56.90339 -93.21762 8.12256 -0.18776 19.99473 -1.58456 3.24821 0.50737 -9.39836 -39.63738 -21.31668 12.27783 10.32568 39.03753 -0.39817 -11.60804 -10.83934 -5.35158
0.89026 0.17329 -0.05959 7.53954 -22.64055 0.57734 30.60205 8.94021 -12.48028 -34.11599 23.44804 -0.83075 -46.84907 -25.17597 14.15651 59.29836 82.25207 18.21765 -3.45753 -42.15594 21.93212 -7.83169 55.50237 -92.36659 7.98103 0.04052 20.25336 -1.97759 4.39048 0.53298 -9.85461 -39.96394 -21.43102 12.85688 9.80514 34.41381 -1.43382 -11.27964 -9.55567 -4.56661
0.89081 0.17375 -0.05894 6.56553 -23.04258 1.14332 30.63981 9.00754 -12.8965 -34.5054 20.73682 -0.83075 -50.23741 -24.05763 13.0418 61.94717 80.55551 18.43782 -3.73201 -42.42385 20.72645 -7.79717 53.80252 -91.62311 7.85133 0.24863 20.77665 -2.4348 5.6109 0.52705 -9.91291 -39.76695 -21.36683 13.69203 9.195 25.76837 -2.71513 -11.92692 -5.0158 -2.03493
0.89142 0.17424 -0.05818 5.6968 -23.36235 1.68935 30.60734 9.08662 -13.30915 -34.97172 18.19791 -0.83075 -53.76852 -23.02847 11.98781 64.50728 78.58125 18.74813 -4.06984 -42.78255 19.61817 -7.77534 52.25765 -90.92729 7.74145 0.44538 21.18269 -2.857 6.82377 0.5283 -10.16302 -39.81183 -21.38216 14.39631 8.63394 19.23184 -3.85812 -12.08452 -2.13868 -0.39767
0.89209 0.17479 -0.05742 4.92206 -23.69418 2.27116 30.63465 9.17489 -13.78732 -35.46378 15.66171 -0.83075 -57.60619 -21.87034 10.63354 67.2423 76.6645 19.1294 -4.38951 -43.21124 18.40888 -7.67225 50.61729 -89.84074 7.53219 0.72687 21.589 -3.31039 7.92779 0.53263 -10.39995 -39.82221 -21.38737 15.16154 8.03054 11.589 -5.12243 -12.39469 1.40689 1.60995
0.89259 0.17519 -0.05672 3.88475 -24.0436 2.78191 30.56819 9.23597 -14.12372 -35.85707 13.03526 -0.83075 -60.68835 -20.94444 9.89869 69.62709 74.79264 19.30716 -4.71193 -43.43781 17.37462 -7.73734 49.11138 -89.57228 7.52596 0.83052 22.05419 -3.71066 9.27119 0.53256 -10.55401 -39.78078 -21.37558 15.85921 7.49768 5.26897 -6.18285 -12.63261 4.38825 3.29067
0.89264 0.17519 -0.05612 2.21532 -24.39003 3.10346 30.19867 9.24374 -14.06914 -36.03696 10.24047 -0.83075 -61.82525 -20.77651 10.9904 71.06921 72.71115 18.95843 -5.11171 -43.17666 16.85031 -8.30016 48.03823 -91.72175 8.12814 0.41413 22.59879 -3.95936 11.27733 0.53697 -10.61674 -39.79425 -21.38315 16.32769 7.16991 3.52536 -6.69903 -12.46694 4.82717 3.52986
0.89251 0.17505 -0.05557 0.289 -24.74999 3.34921 29.73349 9.22287 -13.8745 -36.12064 7.37414 -0.83075 -62.21244 -20.83453 12.68438 72.1428 70.69303 18.41512 -5.51187 -42.71798 16.51173 -9.02389 47.11477 -94.65729 8.92449 -0.17446 23.19563 -4.14941 13.51096 0.53877 -10.5996 -39.75977 -21.37535 16.71686 6.91907 3.24916 -6.98847 -12.19631 4.62963 3.40463
